<?xml version="1.0" encoding="UTF-8"?>
<svg id="Layer_2" data-name="Layer 2" xmlns="http://www.w3.org/2000/svg" xmlns:xlink="http://www.w3.org/1999/xlink" viewBox="0 0 557.04 1089.53">
  <defs>
    <style>
      .cls-1 {
        fill: #171211;
      }

      .cls-2 {
        fill: #161211;
      }

      .cls-3 {
        fill: #efefe9;
      }
    </style>
  </defs>
  <g id="Layer_1-2" data-name="Layer 1">
    <g>
      <path class="cls-3" d="m263.23,125.45c1.76,15.3,8.8,27.35,19.61,41,46.02,58.1,131.31,108.99,158.05,86.16,19.53-16.68,5.49-70.74,23.77-75.76,4.71-1.29,8.57,1.5,10.99-1.19,5.4-6-11.85-22.14-10.99-46.64.29-8.23,2.16-10.55,3.57-17.23,5.25-25.02-15.15-54.23-31.49-68.33-33.9-29.24-88.78-26.63-125.37-2.97-24.99,16.16-52.25,49.11-48.13,84.97Z"/>
      <path class="cls-2" d="m374.14,425.14c17.62-14.9-7.89-89.23-11.61-130.61-.13-1.48-.25-3.03-.07-5.09,1.82-21.36,31.34-26.63,29.29-38.56-2.22-12.87-20.79-11.71-50.66-34.23-23.92-18.03-30.58-32.76-40.24-29.83-9.34,2.83-11.94,23.71-12.65,28.93-1.5,10.99.82,13.79-1.32,18.67-5.96,13.6-33.08,12.63-48.59,14.01-52.9,4.7-90.95,47.3-100.42,58.23-20.39,23.53-54.8,78.34-36.24,115.86,21.03,42.54,132.82-44.23,236.48-2.38,9.89,3.99,27.4,12.29,36.04,4.98Z"/>
      <path class="cls-2" d="m169.35,742.8c-12.15,18.99,26.86,44.26,21.65,83.2-2.46,18.36-20.66,35.08-57.08,68.51-25.27,23.2-66.66,61.2-90.8,71.52-3.01,1.29-11.69,4.68-18.15,13.25-4.32,5.74-3.77,8.65-7.72,16.64-7.91,15.97-16.84,15.86-17.23,24.36-.32,6.97,5.18,12.21,15.45,21.98,5.42,5.15,10.34,9.17,16.64,8.91,5.35-.22,8.57-3.52,11.09-1.78,2.61,1.8.86,6.51,1.59,10.7,1.66,9.54,15.44,14,30.5,19.41,2.54.91,6.08,2.1,10.66,3.36,3.7,1.02,17.02,4.54,40.86,6.04,9.02.57,20.61.91,34.18.32,1.58-.32,6.03-1.32,8.95-3.4.76-.54,1.58-1.22,1.58-1.22,1.45-1.2,2.51-2.34,3.49-3.42,10.42-11.34,15.5-29.8,11.88-40.11-8.65-24.65-70.06-11.09-76.75-30.5-7.33-21.31,57.17-65.24,67.54-72.29,28.12-19.12,57.7-34.74,74.4-67.92,1.47-2.91,2.54-5.93,3.43-9.32,5.14-19.61-.53-39.22-11.88-78.43-10.12-34.97-18.58-41.88-24.36-45.16-16.17-9.19-41.82-7.28-49.91,5.35Z"/>
      <path class="cls-2" d="m322.18,736.46c-13.58,16.39-1.91,38.63,30.3,140.23,22.45,70.8,29.38,99.75,29.11,124.78-.16,14.87,1.71,29.7,1.78,44.56.11,22.38-1.04,32.91,5.35,36.84,3.09,1.9,11.21-.69,27.33-5.94,19.77-6.44,24.73-9.32,25.55-13.67.94-4.99-4.09-9.31-2.38-11.29,1.8-2.08,8.59,1.3,11.29,2.38,13.73,5.48,28.1-6.12,69.52-30.9,26.06-15.59,35.45-20.02,36.84-30.3.76-5.66-1.27-10.7-5.35-20.8-5.64-13.97-9.56-23.69-16.04-26.74-19.36-9.1-48.45,47.54-72.49,41.59-16.19-4.01-13.25-32.25-36.24-107.55-19.67-64.39-24.49-52.48-35.06-97.44-6.75-28.76-8.21-48.24-23.17-55.85-13.52-6.88-35.63-2.84-46.35,10.1Z"/>
      <image width="4000" height="3000" transform="translate(12.34 394.53) scale(.13)" xlink:href="D:\☀ Space Laze\Design\Selvdesign\Kunsttyv+pirat\DSC_0085~2.JPG"/>
      <path class="cls-3" d="m233.98,587.45c4.06,3.84,3.05,7.06,5.84,22.59,0,0,5.36,29.82,17.63,56.75,2.31,5.06,3.07,5.72,5.73,11.9,2.76,6.42,3.63,9.63,7.05,13.22,2.15,2.26,2.84,2.06,6.06,4.63,5.32,4.24,5.84,6.68,12.01,13.99,5.75,6.82,11.4,11.93,12.23,12.67,6.4,5.75,7.78,5.72,9.81,9.26,2.78,4.84,1.37,6.86,4.96,12.23,1.35,2.03,2.85,3.67,2.31,5.4-.48,1.56-2.38,2.42-3.7,2.69-4.51.92-8.76-3.82-9.53-4.67-2.26-2.52-1.61-3.37-4.3-6.61-1.91-2.31-3.68-3.64-5.73-5.18-4.19-3.15-6.29-4.73-8.15-4.08-1.79.63-2.5,2.9-3.31,5.51-.51,1.66-1.5,4.87-.66,8.71,1.02,4.63,3.64,4.73,5.29,10.36.64,2.18,1.35,4.72.22,7.38-.12.29-1.78,4.05-5.07,4.41-1.63.18-2.93-.56-4.04-1.2-2.35-1.34-3.68-3.16-4.77-4.75-2.82-4.12-5.53-8.91-5.51-8.93.03-.02,7.14,9.14,4.19,14.21-.48.82-1.67,2.23-3.53,2.86-1.97.57-3.33.32-4.19,0-2.34-.87-3-2.98-6.54-8.83-2.66-4.4-3.48-5.17-3.49-5.16-.02.01,5.61,5.92,3.97,9.92-.65,1.57-2.34,2.72-3.97,2.86-2.68.25-4.72-2.21-5.62-3.31-1.43-1.73-2.13-3.8-3.55-7.96,0,0-1.13-3.3-1.19-3.28-.07.02,2.71,5.15.77,8.04-1,1.5-2.97,1.96-3.67,2.12-.73.17-2.58.6-4.2-.33-1.26-.73-1.73-1.91-2.43-3.75-1.14-2.99-1.33-5.75-1.6-10.15-.06-.97-.03-.9-.09-1.5-.15-1.53-.52-3-1.34-7.31-1.36-7.1-2.8-14.6-3.31-20.16-.84-9.36,1.8-12.55,1.1-18.84-1.3-11.7-6.39-18.5-19.04-37.12-20.44-30.08-21.99-34.16-23.03-38.74-1.35-5.96-5.47-23.75,5.27-35.54,10.69-11.73,31.93-12.98,41.1-4.3Z"/>
      <path class="cls-1" d="m412.17,126.03c.79.44,5.47,3.16,5.9,8.32.43,5.14-3.59,10.04-8.54,11.13-5.06,1.12-9.01-2.2-9.59-2.7-3.74-3.24-6.25-9.72-3.12-14.45,3.32-5.03,10.85-4.8,15.35-2.3Z"/>
      <path class="cls-1" d="m394.34,111.42c-1.29-.57-1.92-2.05-1.43-3.39.52-1.39,2.06-2.1,3.46-1.59,7.84,2.9,16.04,4.71,24.35,5.37,7.21.57,14.5.27,21.66-.88,1.47-.24,2.85.76,3.09,2.23.24,1.47-.76,2.85-2.23,3.09-7.58,1.23-15.3,1.54-22.94.94-8.81-.7-17.49-2.61-25.79-5.69-.06-.02-.11-.04-.16-.07Z"/>
      <path class="cls-1" d="m357.01,182.98c-.38,0-.75-.03-1.13-.08-3.38-.48-6.48-3.17-8.73-7.58-1.77-3.47-1.76-6.22-1.76-8.64,0-1.96,0-3.51-.92-5.53-.97-2.11-2.07-2.86-3.46-3.82-1.49-1.02-3.34-2.29-4.48-5.26-2.6-6.79.4-18.18,8.01-22.13,3.79-1.97,8.36-1.91,12.55.17,4.69,2.32,8.31,6.89,9.93,12.53.41,1.41-.27,2.93-1.52,3.39-1.25.46-2.59-.31-2.99-1.72-1.21-4.18-3.87-7.56-7.32-9.27-2.95-1.46-6.11-1.54-8.66-.21-5.03,2.62-7.34,10.62-5.63,15.1.53,1.4,1.3,1.92,2.58,2.79,1.62,1.11,3.64,2.49,5.22,5.95,1.46,3.2,1.46,5.76,1.45,8.02,0,2.07,0,3.71,1.12,5.93,1.48,2.92,3.33,4.67,5.2,4.93,2.86.4,6.26-2.57,8.07-7.08.54-1.35,1.95-1.95,3.15-1.33,1.19.62,1.72,2.21,1.18,3.56-2.53,6.29-7.19,10.27-11.85,10.27Z"/>
      <path class="cls-1" d="m362.67,167.95c-.28,0-.57-.06-.85-.18-5.3-2.3-8.09-4.12-7.61-7.14.39-2.48,2.58-2.92,4.33-3.27.71-.14,2.58-.52,2.86-.99h0s.16-.78-1.07-2.89c-.72-1.24-.42-2.91.68-3.73,1.1-.82,2.57-.47,3.29.77,1.86,3.21,2.33,5.96,1.38,8.19-.79,1.85-2.29,2.77-3.79,3.31.47.22,1.01.47,1.63.74,1.23.53,1.84,2.09,1.37,3.47-.36,1.07-1.26,1.73-2.22,1.73Z"/>
      <path class="cls-1" d="m346.23,187.56c-.39,0-.78-.11-1.14-.33-1.15-.72-1.57-2.35-.94-3.65l5.77-11.88c.63-1.3,2.08-1.78,3.23-1.06,1.15.72,1.57,2.35.94,3.65l-5.77,11.88c-.43.89-1.24,1.39-2.08,1.39Z"/>
      <path class="cls-1" d="m356.03,189.54c-.11,0-.21,0-.32-.02-1.3-.2-2.21-1.56-2.03-3.03l1.4-11.69c.18-1.47,1.37-2.5,2.67-2.3,1.3.2,2.21,1.56,2.03,3.03l-1.4,11.69c-.16,1.35-1.18,2.33-2.35,2.33Z"/>
      <path class="cls-2" d="m333.15,287.63c5.02,11.21-3.27,18.67-34.38,89.47-18.03,41.05-21.49,52.75-23.8,65.67-3.79,21.19-8.3,46.4,2.64,72.28,10.47,24.77,24.38,24.78,30.85,48.92,4.99,18.61,4.16,46.28-9.26,53.77-14.44,8.06-36.27-11.27-56.42-3.09-13.78,5.6-15.81,6.49-15.81,6.49-6.05,2.66-9.46,4.2-14.91,5.63-2.81.74-6.12,1.23-10.64,1.34-2.21.05-47.39.07-59.42-23.17-9.23-17.84,11.56-29.11,5.68-58.27-1.51-7.5-3.1-7.8-24.69-44.52-14.6-24.83-22.03-37.34-22.58-42.78-2.14-21.28,10.62-28.48,14.55-61.56,2.22-18.68-1.14-22.36,0-33.94,4.17-42.36,57.42-77.65,101.81-90.36,42.12-12.05,104.71-11.9,116.36,14.1Z"/>
      <path class="cls-2" d="m460.9,45.75c1.37,1.54,2,3.22,2,3.22,1.31,3.44-.46,4.89-.53,10.28-.06,4.23.95,8.96,2.22,10.9.12.19.49.73.74,1.56,0,0,.45,1.53,0,3.32-.74,2.93-58.48,11.44-87.77,20.69-41,12.94-100.96,50.88-114.62,49.2-2.2-.27-3.69-1.25-3.69-1.25-4.92-3.21-3.84-11-4.96-21.81-1.26-12.12-3.78-13.32-3.27-17.03,2.18-16.03,51.72-13.83,107.63-30.32,33.81-9.98,96.94-34.75,102.25-28.77Z"/>
      <path class="cls-2" d="m274.67,115.71c-12.53-7-12.61-30.81-12.64-37.02-.06-16.93,6.43-29.81,10.58-36.44,11.32-18.09,27.8-25.65,38.49-30.56,14.36-6.59,26.4-8.33,36.44-9.7,13.54-1.85,32.96-4.36,55.54,2.64,11.63,3.61,22.98,7.13,32.03,18.07,1.51,1.82,16.51,20.4,11.17,35.41-8.37,23.48-54.98,6.07-117.09,36.34-26.99,13.15-42.05,28.22-54.51,21.26Z"/>
      <path class="cls-1" d="m442.98,213.7c-.06,0-.12,0-.19,0-9.95-.74-24.9-3.79-39.59-14.11l-1.49-1.04c-5.91-4.1-14.02-9.71-18.95-20.04-1.23-2.57-2.21-5.29-2.91-8.08-.34-1.33.47-2.69,1.81-3.03,1.33-.34,2.69.47,3.03,1.81.62,2.47,1.49,4.88,2.58,7.15,4.37,9.13,11.54,14.1,17.29,18.09l1.52,1.06c13.76,9.66,27.77,12.52,37.1,13.22,1.37.1,2.4,1.3,2.3,2.67-.1,1.31-1.19,2.31-2.48,2.31Z"/>
      <path class="cls-1" d="m392.31,146.57c-.98,0-1.92-.59-2.31-1.56-.52-1.28.1-2.73,1.37-3.25l4-1.63c1.26-.52,2.73.09,3.25,1.37.52,1.28-.1,2.73-1.37,3.25l-4,1.63c-.31.12-.62.18-.94.18Z"/>
      <path class="cls-1" d="m399.09,153.03c-.85,0-1.68-.43-2.15-1.22-.7-1.18-.32-2.71.87-3.42l4.02-2.4c1.18-.7,2.71-.32,3.42.87.7,1.18.32,2.71-.87,3.42l-4.02,2.4c-.4.24-.84.35-1.27.35Z"/>
      <path class="cls-3" d="m442.57,387.9c2.28-.14,4.17-.25,5.62.77,1.86,1.31,2.1,3.86,2.2,4.96.08.86.16,2.87-1.65,6.83-3.03,6.63-7.36,10-8.59,10.91-1.82,1.34-3.25,2.36-5.18,2.31-1.72-.04-2.65-.9-3.64-.33-.91.53-.75,1.64-1.32,4.08-.58,2.5-1.3,5.57-3.42,6.61-.41.2-1.34.25-3.2.33-3.48.16-4.08-.39-4.3-.66-.59-.72-.28-1.67-.66-1.76-.4-.1-.82.91-1.76,2.09-.19.24-1.3,1.6-2.98,2.64-1.84,1.14-3.53,1.38-3.97,1.43-1.32.16-2.96.36-3.75-.55-.87-1.01-.08-2.63-.77-2.97-.51-.26-.98.61-2.31.88-.07.01-1.72.35-3.2-.55-.92-.56-1.42-1.38-1.76-2.09-1.52-3.19-1.35-7.55-1.21-9.81.33-5.48.83-5.91.66-9.37-.19-3.84-.87-6.06-.88-6.06-.01,0,1.16,3.16-.2,4.6-.95,1-2.75.77-4.44.55-1.3-.17-1.26-.35-5.39-1.51-1.61-.45-2.47-.67-3.63-.77-1.14-.1-2.1-.06-2.75,0-.29-3.93-.59-7.85-.88-11.78,1.44-2.39,3.19-2.95,3.74-3.1,1.56-.41,3.24.33,6.61,1.76,2.37,1.01,2.96,1.64,3.31,2.2.51.83.61,1.69,1.1,1.76.57.08,1.1-1.01,1.43-1.43,1.92-2.4,2.33-4.41,3.09-6.17.63-1.46,2.68-6.05,5.73-6.39,1.1-.12,2.46.58,5.18,1.98,2.69,1.39,2.44,1.68,3.42,1.87,3.07.6,4.24-2.62,7.82-2.42,1.62.09,3.66.86,5.07,2.31,1.19,1.23,1.13,2.13,2.31,2.64,1.33.58,2-.32,4.19,0,.41.06,1.81.3,3.2,1.21,1.98,1.3,1.78,2.57,3.31,3.2,1.07.44,1.43-.07,3.86-.22Z"/>
      <path class="cls-1" d="m411.38,151.44c-2.07,0-4.11-.33-6.03-.99-6.14-2.11-11.03-7.71-12.45-14.27-1.2-5.58-.42-9.79,2.21-11.85,2.08-1.64,4.31-1.28,6.89-.87,1.1.18,2.35.37,3.82.47,3.07.22,4.53-.17,6.74-.77,1.86-.5,4.17-1.11,8.07-1.58,7.14-.85,17.94-2.15,21.02,3.53,1.15,2.12.67,4.21,0,7.09-1.09,4.74-3.37,9.04-6.79,12.8-.74.82-2,.88-2.82.13-.82-.74-.88-2-.13-2.82,2.95-3.24,4.92-6.94,5.85-11,.57-2.49.79-3.54.37-4.3-1.79-3.3-12.47-2.01-17.03-1.47-3.62.43-5.69.99-7.52,1.48-2.4.64-4.3,1.15-8.04.89-1.64-.11-3.04-.34-4.17-.52-2.33-.37-3.14-.45-3.79.07-1.3,1.02-1.6,4.04-.77,7.87.86,3.97,3.95,9.31,9.85,11.34,2.33.8,4.92.98,7.49.53,1.1-.19,2.12.53,2.32,1.61.19,1.09-.53,2.12-1.61,2.32-1.15.2-2.31.31-3.46.31Z"/>
    </g>
  </g>
</svg>